Coordinates
version=1
nRows=21
nColumns=22
inDegrees=yes

Units are S.I. units (second, meters, Newtons, ...)
If the header above contains a line with 'inDegrees', this indicates whether rotational values are in degrees (yes) or radians (no).

endheader
time	pelvis_tilt	pelvis_list	pelvis_rotation	pelvis_tx	pelvis_ty	pelvis_tz	hip_flexion_r	hip_adduction_r	hip_rotation_r	knee_angle_r	ankle_angle_r	subtalar_angle_r	hip_flexion_l	hip_adduction_l	hip_rotation_l	knee_angle_l	ankle_angle_l	subtalar_angle_l	lumbar_extension	lumbar_bending	lumbar_rotation
      2.63000000	      4.22360758	      5.08128258	    -36.16061825	     -0.17132167	      1.07115494	     -0.49392189	     12.87178254	     -4.65268859	      9.46010747	    -60.52505057	      0.85054846	      6.57752155	      7.58331905	      5.02844080	      0.44549916	    -15.18997916	      9.23137719	      3.14328476	     -5.74772030	     -8.70225233	     -4.86459558
      2.64000000	      4.33849271	      4.93617960	    -36.43694246	     -0.16404121	      1.07205828	     -0.49137613	     13.71217231	     -4.62922139	      8.88349260	    -60.73316741	      1.90030001	      5.69349999	      6.78072717	      5.10462878	      0.20346607	    -14.85865043	      9.46504473	      3.00145081	     -5.95272638	     -8.59166704	     -5.15785127
      2.65000000	      4.42633233	      4.76196417	    -36.74277107	     -0.15692347	      1.07288900	     -0.48864907	     14.50679618	     -4.52635352	      8.35062708	    -60.73982981	      2.85989578	      4.91271551	      5.98290960	      5.12965667	     -0.08313366	    -14.52502340	      9.71482974	      2.86275385	     -6.14469316	     -8.45157067	     -5.38705242
      2.66000000	      4.48090847	      4.57182766	    -37.07971341	     -0.14997924	      1.07361564	     -0.48573082	     15.27164955	     -4.34540296	      7.86979734	    -60.55892347	      3.73282884	      4.20789329	      5.19167619	      5.11281924	     -0.38231884	    -14.16755692	      9.95269246	      2.73195446	     -6.31198068	     -8.29406194	     -5.55911345
      2.67000000	      4.51914342	      4.38251927	    -37.44857572	     -0.14318582	      1.07421414	     -0.48264324	     16.00988658	     -4.12808111	      7.41820985	    -60.20745188	      4.53447501	      3.58532888	      4.40893769	      5.08021227	     -0.71365094	    -13.79828656	     10.19663330	      2.60781456	     -6.45707745	     -8.14391188	     -5.69334075
      2.68000000	      4.53814537	      4.20442219	    -37.84165252	     -0.13654337	      1.07465683	     -0.47944526	     16.73392453	     -3.89258681	      6.98046249	    -59.69695191	      5.30596552	      3.08602951	      3.65390017	      5.04175188	     -1.07537571	    -13.43211640	     10.45825081	      2.49287778	     -6.58077590	     -8.00023941	     -5.80404253
      2.69000000	      4.54681895	      4.03629611	    -38.25239153	     -0.13003567	      1.07495233	     -0.47615675	     17.43712589	     -3.65892680	      6.52662914	    -59.03579472	      6.05766548	      2.66551206	      2.91757824	      5.00442300	     -1.45484843	    -13.06844698	     10.73091543	      2.38034871	     -6.69183703	     -7.86624189	     -5.90412394
      2.70000000	      4.54503861	      3.88954957	    -38.66251087	     -0.12363735	      1.07509130	     -0.47281887	     18.12611473	     -3.45355820	      6.02400624	    -58.23551997	      6.79584755	      2.35577762	      2.21970421	      4.97978431	     -1.84349061	    -12.72939741	     11.01896303	      2.27458979	     -6.78305470	     -7.74829485	     -6.00592713
      2.71000000	      4.54163430	      3.75421268	    -39.06717835	     -0.11736076	      1.07509163	     -0.46947580	     18.79239087	     -3.27875476	      5.46460966	    -57.31296769	      7.52370141	      2.08337720	      1.53780958	      4.96734349	     -2.22166019	    -12.39370258	     11.31301328	      2.16631910	     -6.88070432	     -7.63581837	     -6.13272471
      2.72000000	      4.53974467	      3.63717116	    -39.45626847	     -0.11114765	      1.07498093	     -0.46606972	     19.42056875	     -3.14828850	      4.83295921	    -56.25881886	      8.20804922	      1.84356570	      0.87645495	      4.97351681	     -2.57514264	    -12.07641048	     11.60653492	      2.05668066	     -6.96293625	     -7.54202398	     -6.30159569
      2.73000000	      4.53557166	      3.53944131	    -39.82019965	     -0.10500179	      1.07475096	     -0.46266403	     20.02400800	     -3.06853249	      4.11601941	    -55.09859609	      8.85320209	      1.63267524	      0.24275111	      4.99751635	     -2.90375975	    -11.77691302	     11.89936999	      1.94776474	     -7.03877316	     -7.45619449	     -6.50692174
      2.74000000	      4.53066780	      3.45613781	    -40.15735346	     -0.09889930	      1.07442323	     -0.45923552	     20.59010270	     -3.03704040	      3.31103253	    -53.83549057	      9.44995225	      1.44160573	     -0.36087027	      5.03477290	     -3.20615869	    -11.51197043	     12.20052080	      1.83896183	     -7.10545599	     -7.37748475	     -6.74412876
      2.75000000	      4.52301058	      3.38101092	    -40.47079316	     -0.09281557	      1.07401704	     -0.45575609	     21.11139426	     -3.04320767	      2.42502847	    -52.47500700	      9.99673088	      1.25340649	     -0.94295147	      5.07786218	     -3.48227264	    -11.27424203	     12.49871257	      1.73198293	     -7.16118829	     -7.29801880	     -7.00368796
      2.76000000	      4.51629829	      3.30328346	    -40.76778165	     -0.08673322	      1.07355785	     -0.45220156	     21.57348695	     -3.07894522	      1.45795956	    -51.02108350	     10.49838674	      1.04450782	     -1.51268233	      5.11974524	     -3.73954544	    -11.06876395	     12.78050524	      1.62750977	     -7.21255176	     -7.21147820	     -7.25537320
      2.77000000	      4.49962103	      3.22431257	    -41.04209022	     -0.08064762	      1.07303419	     -0.44856401	     21.98418821	     -3.13245286	      0.41343811	    -49.48111460	     10.94558174	      0.84669585	     -2.05271377	      5.15207314	     -3.97147283	    -10.91255812	     13.09767930	      1.53041452	     -7.24718169	     -7.10982328	     -7.52666016
      2.78000000	      4.49103571	      3.13317017	    -41.31038698	     -0.07456941	      1.07248783	     -0.44481853	     22.31759132	     -3.19365968	     -0.68288654	    -47.85317249	     11.35824565	      0.60353532	     -2.59542264	      5.17940535	     -4.19866415	    -10.78371101	     13.40768205	      1.43799468	     -7.29040583	     -7.00002593	     -7.79099070
      2.79000000	      4.45906153	      3.04256746	    -41.54976564	     -0.06851205	      1.07187814	     -0.44101046	     22.60985226	     -3.25693160	     -1.85609619	    -46.14465734	     11.70688721	      0.39790658	     -3.08584862	      5.18679325	     -4.39917834	    -10.71958350	     13.73592638	      1.35905019	     -7.31175012	     -6.86979755	     -8.04824126
      2.80000000	      4.42325744	      2.94090050	    -41.77397415	     -0.06248157	      1.07123672	     -0.43711032	     22.83690532	     -3.31548627	     -3.08986699	    -44.35897827	     11.99491090	      0.17460601	     -3.55891046	      5.17893175	     -4.58571264	    -10.70076116	     14.07706131	      1.28365737	     -7.33642881	     -6.72431474	     -8.28880013
      2.81000000	      4.38214838	      2.82857753	    -41.98313362	     -0.05649474	      1.07056208	     -0.43312091	     23.00206985	     -3.36158076	     -4.37686691	    -42.50160988	     12.21304146	     -0.06851415	     -4.01384344	      5.15411110	     -4.76062623	    -10.72549845	     14.42530361	      1.21106075	     -7.36531377	     -6.56536067	     -8.51239230
      2.82000000	      4.32939215	      2.70710477	    -42.17778134	     -0.05054310	      1.06984690	     -0.42903774	     23.11301067	     -3.38783533	     -5.72013284	    -40.57846319	     12.34696779	     -0.32337253	     -4.44864419	      5.10933787	     -4.92542473	    -10.78709625	     14.77990980	      1.13963675	     -7.39152430	     -6.38910092	     -8.72079974
      2.83000000	      4.26076749	      2.58116009	    -42.35685842	     -0.04464197	      1.06908198	     -0.42487031	     23.18246692	     -3.38954029	     -7.11402192	    -38.59966020	     12.39232400	     -0.57492421	     -4.85634974	      5.04400143	     -5.07595977	    -10.88602679	     15.13846226	      1.06865835	     -7.41117941	     -6.19671755	     -8.90062370
